<svg id="visual" viewBox="0 0 900 600" width="900" height="600" xmlns="http://www.w3.org/2000/svg"
    xmlns:xlink="http://www.w3.org/1999/xlink" version="1.1">
    <rect x="0" y="0" width="900" height="600" fill="#002233"></rect>
    <path
        d="M599 600L624.3 585.7C649.7 571.3 700.3 542.7 697.5 514.2C694.7 485.7 638.3 457.3 640.7 428.8C643 400.3 704 371.7 709.8 343C715.7 314.3 666.3 285.7 643.2 257C620 228.3 623 199.7 621.3 171.2C619.7 142.7 613.3 114.3 619.5 85.8C625.7 57.3 644.3 28.7 653.7 14.3L663 0L900 0L900 14.3C900 28.7 900 57.3 900 85.8C900 114.3 900 142.7 900 171.2C900 199.7 900 228.3 900 257C900 285.7 900 314.3 900 343C900 371.7 900 400.3 900 428.8C900 457.3 900 485.7 900 514.2C900 542.7 900 571.3 900 585.7L900 600Z"
        fill="#0066FF" stroke-linecap="round" stroke-linejoin="miter"></path>
</svg>
